# xmcd CD database file
#
# Track frame offsets:
#	150
#	24928
#	66158
#	97715
#	124833
#	180058
#
# Disc length: 2574 seconds
#
# Revision: 4
# Processed by: cddbd v1.5.2PL0 Copyright (c) Steve Scherf et al.
# Submitted via: CDex 1.70beta1
#
DISCID=390a0c06
DTITLE=Wynton Marsalis - Blakey's Theme
DYEAR=1980
DGENRE=Jazz
TTITLE0=One By One
TTITLE1=My Funny Valentine
TTITLE2=Round 'Bout Midnight
TTITLE3=Eta
TTITLE4=Time Will Tell
TTITLE5=Blakey's Theme
EXTD=YEAR: 1980
EXTT0=
EXTT1=
EXTT2=
EXTT3=
EXTT4=
EXTT5=
PLAYORDER=
